<mxfile host="app.diagrams.net" modified="2023-03-23T06:34:52.641Z" agent="5.0 (Windows NT 10.0; Win64; x64) AppleWebKit/537.36 (KHTML, like Gecko) Chrome/111.0.0.0 Safari/537.36" etag="kqVJPSRLkwPJsRzJ8VKa" version="21.0.10" type="github">
  <diagram name="Page-1" id="TK_UhNAvCGLo8-jz-sQq">
    <mxGraphModel dx="1434" dy="788" grid="1" gridSize="10" guides="1" tooltips="1" connect="1" arrows="1" fold="1" page="1" pageScale="1" pageWidth="850" pageHeight="1100" math="0" shadow="0">
      <root>
        <mxCell id="0" />
        <mxCell id="1" parent="0" />
        <mxCell id="apaRClghpj3u5-84oaar-6" value="CRUD Operations" style="swimlane;startSize=0;align=center;verticalAlign=bottom;" vertex="1" parent="1">
          <mxGeometry x="360" y="280" width="120" height="100" as="geometry" />
        </mxCell>
        <mxCell id="apaRClghpj3u5-84oaar-1" value="" style="html=1;verticalLabelPosition=bottom;align=center;labelBackgroundColor=#ffffff;verticalAlign=top;strokeWidth=2;strokeColor=#0080F0;shadow=0;dashed=0;shape=mxgraph.ios7.icons.add;" vertex="1" parent="apaRClghpj3u5-84oaar-6">
          <mxGeometry x="21.789999999999992" y="15" width="30" height="30" as="geometry" />
        </mxCell>
        <mxCell id="apaRClghpj3u5-84oaar-2" value="" style="shape=image;html=1;verticalAlign=top;verticalLabelPosition=bottom;labelBackgroundColor=#ffffff;imageAspect=0;aspect=fixed;image=https://cdn4.iconfinder.com/data/icons/success-filloutline/64/idea-read-knowledge-light_bulb-thinking-128.png" vertex="1" parent="apaRClghpj3u5-84oaar-6">
          <mxGeometry x="71.78999999999999" y="15" width="30" height="30" as="geometry" />
        </mxCell>
        <mxCell id="apaRClghpj3u5-84oaar-3" value="" style="sketch=0;outlineConnect=0;fontColor=#232F3E;gradientColor=none;fillColor=#3F8624;strokeColor=none;dashed=0;verticalLabelPosition=bottom;verticalAlign=top;align=center;html=1;fontSize=12;fontStyle=0;aspect=fixed;pointerEvents=1;shape=mxgraph.aws4.iot_over_the_air_update;" vertex="1" parent="apaRClghpj3u5-84oaar-6">
          <mxGeometry x="18.22" y="55" width="37.14" height="30" as="geometry" />
        </mxCell>
        <mxCell id="apaRClghpj3u5-84oaar-4" value="" style="html=1;verticalLabelPosition=bottom;align=center;labelBackgroundColor=#ffffff;verticalAlign=top;strokeWidth=2;strokeColor=#0080F0;shadow=0;dashed=0;shape=mxgraph.ios7.icons.delete;" vertex="1" parent="apaRClghpj3u5-84oaar-6">
          <mxGeometry x="71.78999999999999" y="55" width="30" height="30" as="geometry" />
        </mxCell>
      </root>
    </mxGraphModel>
  </diagram>
</mxfile>
